<svg width="95" height="95" viewBox="0 0 95 95" fill="none" xmlns="http://www.w3.org/2000/svg">
<path fill-rule="evenodd" clip-rule="evenodd" d="M37.4064 51H50.0022H61.032C61.7762 51 62.4574 50.5763 62.7921 49.9133C63.1268 49.2503 63.052 48.4539 62.607 47.8615L27.1686 0.784615C26.7985 0.290308 26.2118 0 25.5936 0H13.9981H13.9979H1.96804C1.22383 0 0.542627 0.423692 0.207932 1.08669C-0.126764 1.74969 -0.0519497 2.54608 0.392999 3.13846L35.8314 50.2154C36.2015 50.7097 36.7882 51 37.4064 51ZM24.6092 3.92308H17.9994L51.0023 47.0769H57.0944L24.6092 3.92308ZM5.90563 3.92308H12.999L46.0019 47.0769H38.3908L5.90563 3.92308ZM31 77C31 86.924 39.076 95 49 95C58.924 95 67 86.924 67 77C67 67.076 58.924 59 49 59C39.076 59 31 67.076 31 77ZM35 77C35 69.28 41.28 63 49 63C56.72 63 63 69.28 63 77C63 84.72 56.72 91 49 91C41.28 91 35 84.72 35 77ZM39 77C39 82.512 43.484 87 49 87C54.516 87 59 82.512 59 77C59 71.488 54.516 67 49 67C43.484 67 39 71.488 39 77ZM43 77C43 73.692 45.692 71 49 71C52.308 71 55 73.692 55 77C55 80.308 52.308 83 49 83C45.692 83 43 80.308 43 77ZM65.7074 45C65.0794 45 64.4834 44.7036 64.1073 44.1989L51.3988 27.2363C50.8907 26.5594 50.8667 25.6302 51.3348 24.9252L67.3355 0.893191C67.7075 0.332443 68.3315 0 68.9995 0H93.0006C93.7407 0 94.4167 0.408545 94.7607 1.05741C95.1127 1.71028 95.0727 2.49933 94.6647 3.11215L67.3715 44.1068C67.0115 44.6475 66.4114 44.98 65.7634 45H65.7074ZM55.4469 25.9666L65.6074 39.5327L89.2605 4.00534H70.0676L55.4469 25.9666Z" fill="url(#paint0_linear)"/>
<defs>
<linearGradient id="paint0_linear" x1="39.0119" y1="-70.6808" x2="-34.6045" y2="41.2955" gradientUnits="userSpaceOnUse">
<stop stop-color="#01DCBA"/>
<stop offset="1" stop-color="#7F30CB"/>
</linearGradient>
</defs>
</svg>
